<?xml version="1.0" encoding="UTF-8" standalone="no"?>
<svg
   xmlns:dc="http://purl.org/dc/elements/1.1/"
   xmlns:cc="http://creativecommons.org/ns#"
   xmlns:rdf="http://www.w3.org/1999/02/22-rdf-syntax-ns#"
   xmlns:svg="http://www.w3.org/2000/svg"
   xmlns="http://www.w3.org/2000/svg"
   width="708.6817"
   height="88.778397"
   viewBox="0 0 708.6817 88.778397"
   version="1.1"
   id="svg16">
  <metadata
     id="metadata22">
    <rdf:RDF>
      <cc:Work
         rdf:about="">
        <dc:format>image/svg+xml</dc:format>
        <dc:type
           rdf:resource="http://purl.org/dc/dcmitype/StillImage" />
        <dc:title>Logo</dc:title>
      </cc:Work>
    </rdf:RDF>
  </metadata>
  <defs
     id="defs20" />
  <title
     id="title2">Logo</title>
  <g
     transform="translate(285.16172)"
     style="fill:none;fill-rule:evenodd;stroke:none;stroke-width:1"
     id="Identity">
    <g
       id="g13"
       transform="translate(-194,-112)">
      <g
         id="Logo"
         transform="translate(194,112)">
        <g
           id="Avatar">
          <path
             style="fill:#0054ff"
             d="m 42.5,0 c 23.472102,0 42.5,19.027898 42.5,42.5 0,10.87589 -4.08523,20.797624 -10.804894,28.314406 l -3.623288,-3.62427 c -1.348039,-1.348039 -3.533643,-1.348039 -4.881682,0 -1.348039,1.348039 -1.348039,3.533643 0,4.881682 v 0 l 3.502423,3.502038 c -7.295839,5.895561 -16.581893,9.426144 -26.692559,9.426144 -23.472102,0 -42.5,-19.027898 -42.5,-42.5 0,-10.110666 3.5305826,-19.39672 9.4261443,-26.692559 l 3.0020377,3.002423 c 1.348039,1.348039 3.533643,1.348039 4.881682,0 1.348039,-1.348039 1.348039,-3.533643 0,-4.881682 v 0 l -3.12427,-3.123288 c 7.516782,-6.7196643 17.438516,-10.804894 28.314406,-10.804894 z m 5.607467,67.249676 c -1.33894,-1.338941 -3.509792,-1.338941 -4.848732,0 v 0 l -8.575893,8.575893 c -1.338941,1.33894 -1.338941,3.509792 0,4.848732 1.33894,1.338941 3.509791,1.338941 4.848732,0 v 0 l 8.575893,-8.575893 c 1.338941,-1.338941 1.338941,-3.509792 0,-4.848732 z m 13.089664,-12.232521 c -2.343146,-2.343146 -6.155044,-2.330238 -8.514113,0.02883 -2.359068,2.359069 -2.371976,6.170967 -0.02883,8.514112 2.343146,2.343146 6.155044,2.330238 8.514113,-0.02883 2.359069,-2.359068 2.371977,-6.170966 0.02883,-8.514112 z m -21.482456,-18.684162 c -1.348039,-1.348039 -3.533643,-1.348039 -4.881682,0 -1.348039,1.348039 -1.348039,3.533643 0,4.881682 v 0 l 8.452332,8.452332 c 1.348039,1.348039 3.533642,1.348039 4.881682,0 1.348039,-1.34804 1.348039,-3.533643 0,-4.881682 v 0 z m -9.374687,-12.172981 c -2.343146,-2.343146 -6.155044,-2.330238 -8.514113,0.02883 -2.359068,2.359069 -2.371976,6.170967 -0.02883,8.514113 2.343146,2.343145 6.155044,2.330237 8.514113,-0.02883 2.359069,-2.359068 2.371977,-6.170966 0.02883,-8.514112 z m 17.97717,-18.8343133 c -1.33894,-1.3389404 -3.509791,-1.3389404 -4.848732,0 v 0 l -8.575893,8.5758933 c -1.338941,1.338941 -1.338941,3.509792 0,4.848732 1.33894,1.338941 3.509792,1.338941 4.848732,0 v 0 l 8.575893,-8.575893 c 1.338941,-1.3389405 1.338941,-3.5097918 0,-4.8487323 z"
             id="Bg" />
          <path
             style="fill:#ffffff"
             d="m 48.107467,67.249676 c 1.338941,1.33894 1.338941,3.509791 0,4.848732 l -8.575893,8.575893 c -1.338941,1.338941 -3.509792,1.338941 -4.848732,0 -1.338941,-1.33894 -1.338941,-3.509792 0,-4.848732 l 8.575893,-8.575893 c 1.33894,-1.338941 3.509792,-1.338941 4.848732,0 z m 22.464351,-0.05954 3.623884,3.623603 c -1.535856,1.718119 -3.209346,3.310599 -5.003143,4.760117 l -3.502423,-3.502038 c -1.348039,-1.348039 -1.348039,-3.533643 0,-4.881682 1.348039,-1.348039 3.533643,-1.348039 4.881682,0 z m -9.374687,-12.172981 c 2.343146,2.343146 2.330238,6.155044 -0.02883,8.514112 -2.359069,2.359069 -6.170967,2.371977 -8.514113,0.02883 -2.343145,-2.343145 -2.330237,-6.155043 0.02883,-8.514112 2.359069,-2.359069 6.170967,-2.371977 8.514113,-0.02883 z m -21.482456,-18.684162 8.452332,8.452332 c 1.348039,1.348039 1.348039,3.533642 0,4.881682 -1.34804,1.348039 -3.533643,1.348039 -4.881682,0 l -8.452332,-8.452332 c -1.348039,-1.348039 -1.348039,-3.533643 0,-4.881682 1.348039,-1.348039 3.533643,-1.348039 4.881682,0 z m -9.374687,-12.172981 c 2.343146,2.343146 2.330238,6.155044 -0.02883,8.514112 -2.359069,2.359069 -6.170967,2.371977 -8.514113,0.02883 -2.343145,-2.343146 -2.330237,-6.155044 0.02883,-8.514113 2.359069,-2.359069 6.170967,-2.371977 8.514113,-0.02883 z m -16.153727,-13.355714 3.123603,3.123884 c 1.348039,1.348039 1.348039,3.533643 0,4.881682 -1.348039,1.348039 -3.533643,1.348039 -4.881682,0 l -3.0020988,-3.002347 c 1.4495338,-1.793827 3.0420348,-3.467341 4.7601778,-5.003219 z m 34.130897,-5.4785993 c 1.338941,1.3389405 1.338941,3.5097918 0,4.8487323 l -8.575893,8.575893 c -1.33894,1.338941 -3.509792,1.338941 -4.848732,0 -1.338941,-1.33894 -1.338941,-3.509791 0,-4.848732 l 8.575893,-8.5758933 c 1.338941,-1.3389404 3.509792,-1.3389404 4.848732,0 z"
             id="Stripes" />
        </g>
        <g
           style="fill:#000000"
           id="Aleph.im"
           transform="translate(101.04,4)">
          <path
             d="m 13.96,61.8 c 2.88,0 5.38,-0.573333 7.5,-1.72 2.12,-1.146667 3.886667,-3.213333 5.3,-6.2 v 0 l 0.96,7.12 h 9.76 v -29.08 c 0,-2.693333 -0.573333,-5.02 -1.72,-6.98 -1.146667,-1.96 -3,-3.466667 -5.56,-4.52 -2.56,-1.053333 -5.96,-1.58 -10.2,-1.58 -3.44,0 -6.513333,0.473333 -9.22,1.42 -2.7066667,0.946667 -4.8466667,2.386667 -6.42,4.32 -1.5733333,1.933333 -2.44,4.393333 -2.6,7.38 v 0 h 9.72 c 0.56,-1.92 1.606667,-3.266667 3.14,-4.04 1.533333,-0.773333 3.153333,-1.173333 4.86,-1.2 2.32,-0.02667 4.033333,0.473333 5.14,1.5 1.106667,1.026667 1.66,2.486667 1.66,4.38 v 0 2.48 l -5.16,0.08 c -7.306667,0.08 -12.6533333,1.3 -16.04,3.66 -3.3866667,2.36 -5.08,5.806667 -5.08,10.34 0,2.693333 0.61333333,4.98 1.84,6.86 1.2266667,1.88 2.8933333,3.313333 5,4.3 2.1066667,0.986667 4.48,1.48 7.12,1.48 z m 3.92,-7.68 c -1.893333,0 -3.506667,-0.54 -4.84,-1.62 -1.333333,-1.08 -2,-2.58 -2,-4.5 0,-1.68 0.513333,-3.013333 1.54,-4 1.026667,-0.986667 2.38,-1.7 4.06,-2.14 1.68,-0.44 3.493333,-0.673333 5.44,-0.7 v 0 l 4.2,-0.08 v 6.12 c 0,0.88 -0.24,1.733333 -0.72,2.56 -0.48,0.826667 -1.113333,1.566667 -1.9,2.22 -0.786667,0.653333 -1.68,1.173333 -2.68,1.56 -1,0.386667 -2.033333,0.58 -3.1,0.58 z m 43.16,7.6 c 0.8,0 1.613333,-0.1 2.44,-0.3 0.826667,-0.2 1.64,-0.433333 2.44,-0.7 v 0 -7.2 l -1.96,-0.12 c -1.813333,-0.213333 -3.046667,-0.793333 -3.7,-1.74 -0.653333,-0.946667 -0.98,-2.18 -0.98,-3.7 v 0 -46.4 h -11.44 v 47.84 c 0,1.493333 0.12,2.966667 0.36,4.42 0.24,1.453333 0.786667,2.773333 1.64,3.96 0.853333,1.186667 2.173333,2.14 3.96,2.86 1.786667,0.72 4.2,1.08 7.24,1.08 z m 31.48,0.08 c 2.88,0 5.653333,-0.546667 8.32,-1.64 2.66667,-1.093333 4.94,-2.68 6.82,-4.76 1.88,-2.08 3.04667,-4.586667 3.5,-7.52 v 0 h -10.52 c -0.58667,1.946667 -1.633333,3.346667 -3.14,4.2 -1.506667,0.853333 -3.26,1.28 -5.26,1.28 -1.866667,0 -3.46,-0.42 -4.78,-1.26 -1.32,-0.84 -2.326667,-2.04 -3.02,-3.6 -0.693333,-1.56 -1.026667,-3.393333 -1,-5.5 v 0 h 27.76 v -3.16 c 0,-4.133333 -0.72667,-7.78 -2.18,-10.94 -1.45333,-3.16 -3.61333,-5.626667 -6.48,-7.4 -2.866667,-1.773333 -6.406667,-2.66 -10.62,-2.66 -4.213333,0 -7.82,0.966667 -10.82,2.9 -3,1.933333 -5.286667,4.56 -6.86,7.88 -1.573333,3.32 -2.36,7.046667 -2.36,11.18 0,4.266667 0.866667,7.973333 2.6,11.12 1.733333,3.146667 4.153333,5.58 7.26,7.3 3.106667,1.72 6.7,2.58 10.78,2.58 z m 7.76,-25.76 h -16.88 c 0,-1.52 0.333333,-2.973333 1,-4.36 0.666667,-1.386667 1.633333,-2.513333 2.9,-3.38 1.266667,-0.866667 2.806667,-1.3 4.62,-1.3 1.866667,0 3.42,0.4 4.66,1.2 1.24,0.8 2.166667,1.893333 2.78,3.28 0.613333,1.386667 0.92,2.906667 0.92,4.56 z m 30.72,37.84 v -19.08 c 0.58667,0.986667 1.27333,1.9 2.06,2.74 0.78667,0.84 1.68,1.58 2.68,2.22 1,0.64 2.08667,1.14 3.26,1.5 1.17333,0.36 2.42667,0.54 3.76,0.54 3.25333,0 6.17333,-0.773333 8.76,-2.32 2.58667,-1.546667 4.62,-3.926667 6.1,-7.14 1.48,-3.213333 2.22,-7.326667 2.22,-12.34 0,-4.826667 -0.68667,-8.806667 -2.06,-11.94 -1.37333,-3.133333 -3.26,-5.453333 -5.66,-6.96 -2.4,-1.506667 -5.13333,-2.26 -8.2,-2.26 -1.41333,0 -2.76,0.166667 -4.04,0.5 -1.28,0.333333 -2.46667,0.806667 -3.56,1.42 -1.09333,0.613333 -2.08667,1.326667 -2.98,2.14 -0.89333,0.813333 -1.64667,1.713333 -2.26,2.7 v 0 l -0.04,-5.96 h -11.72 v 54.24 z m 8.96,-20.64 c -2.02667,0 -3.7,-0.613333 -5.02,-1.84 -1.32,-1.226667 -2.30667,-2.84 -2.96,-4.84 -0.65333,-2 -0.98,-4.16 -0.98,-6.48 0,-3.626667 0.74,-6.66 2.22,-9.1 1.48,-2.44 3.72667,-3.66 6.74,-3.66 2.69333,0 4.86,1.126667 6.5,3.38 1.64,2.253333 2.46,5.38 2.46,9.38 0,4.56 -0.86,7.893333 -2.58,10 -1.72,2.106667 -3.84667,3.16 -6.38,3.16 z m 39.32,7.76 v -26.4 c 0,-1.36 0.36667,-2.5 1.1,-3.42 0.73333,-0.92 1.68667,-1.606667 2.86,-2.06 1.17333,-0.453333 2.38667,-0.68 3.64,-0.68 1.92,0 3.55333,0.5 4.9,1.5 1.34667,1 2.02,2.433333 2.02,4.3 v 0 26.76 h 11.72 v -28.48 c 0,-2.8 -0.66,-5.173333 -1.98,-7.12 -1.32,-1.946667 -3.06667,-3.433333 -5.24,-4.46 -2.17333,-1.026667 -4.58,-1.54 -7.22,-1.54 -2.18667,0 -4.04,0.32 -5.56,0.96 -1.52,0.64 -2.78667,1.433333 -3.8,2.38 -1.01333,0.946667 -1.85333,1.9 -2.52,2.86 v 0 -24.04 h -11.6 v 59.44 z"
             id="aleph"
             style="fill:#ffffff;fill-rule:nonzero" />
          <path
             d="m 249.72,61 v -41.36 h -11.16 v 41.36 z m 22.28,0 v -26.48 c 0,-1.386667 0.36,-2.54 1.08,-3.46 0.72,-0.92 1.61333,-1.6 2.68,-2.04 1.06667,-0.44 2.13333,-0.66 3.2,-0.66 1.04,0 2.06,0.22 3.06,0.66 1,0.44 1.83333,1.086667 2.5,1.94 0.66667,0.853333 1,1.906667 1,3.16 v 0 26.88 h 11.64 v -26.48 c 0,-1.466667 0.37333,-2.653333 1.12,-3.56 0.74667,-0.906667 1.65333,-1.566667 2.72,-1.98 1.06667,-0.413333 2.12,-0.62 3.16,-0.62 1.12,0 2.18,0.22 3.18,0.66 1,0.44 1.82667,1.16 2.48,2.16 0.65333,1 0.98,2.326667 0.98,3.98 v 0 25.84 h 11.68 v -27.28 c 0,-2.8 -0.40667,-5.153333 -1.22,-7.06 -0.81333,-1.906667 -1.88667,-3.433333 -3.22,-4.58 -1.33333,-1.146667 -2.79333,-1.973333 -4.38,-2.48 -1.58667,-0.506667 -3.15333,-0.76 -4.7,-0.76 -2.66667,0 -5.08667,0.633333 -7.26,1.9 -2.17333,1.266667 -3.92667,2.846667 -5.26,4.74 -0.8,-1.466667 -1.84667,-2.686667 -3.14,-3.66 -1.29333,-0.973333 -2.67333,-1.713333 -4.14,-2.22 -1.46667,-0.506667 -2.90667,-0.76 -4.32,-0.76 -3.22667,0 -5.9,0.653333 -8.02,1.96 -2.12,1.306667 -3.80667,2.866667 -5.06,4.68 v 0 -5.84 h -11.44 v 41.36 z"
             id="im"
             style="fill:#ffffff;fill-rule:nonzero" />
          <circle
             id="Oval-Copy-4"
             cx="243.96001"
             cy="6"
             r="6"
             style="fill:#ffffff" />
          <circle
             id="Oval-Copy-5"
             cx="221.96001"
             cy="55"
             r="6"
             style="fill:#ffffff" />
        </g>
      </g>
    </g>
  </g>
  <g
     id="text850"
     style="font-style:normal;font-weight:normal;font-size:47.41068649px;line-height:100%;font-family:Sans;letter-spacing:0px;word-spacing:0px;fill:#000000;fill-opacity:1;stroke:none;stroke-width:1.18526721px;stroke-linecap:butt;stroke-linejoin:miter;stroke-opacity:1"
     transform="rotate(0.83827435)"
     aria-label="powered by">
    <path
       id="path1488"
       style="font-style:normal;font-variant:normal;font-weight:normal;font-stretch:normal;font-family:HarabaraHand;-inkscape-font-specification:HarabaraHand;fill:#ffffff;fill-opacity:1;stroke-width:1.18526721px"
       d="m 1.3118874,83.332016 q 0.092599,-0.648193 0,-1.111188 -0.092599,-0.462995 0.092599,-1.018589 0.185198,0 0.2777969,0 0,0 0,0 0,0 0,-0.0926 0,-0.0926 0,-0.0926 -0.2777969,0.0926 -0.4629949,-0.277797 0,-1.203787 0.4629949,-1.944579 0.462995,-0.740792 0.462995,-1.759381 l 6.4819298,-12.315666 q -2.0371779,0 -1.9445789,-1.481584 0.462995,-1.388985 3.9817568,-2.685371 0.740792,-1.666782 1.296386,-3.055767 0.555594,-1.481584 0.648193,-1.481584 0,0.0926 0,0.277797 0.0926,0.0926 0.0926,0.0926 0.277797,-0.277797 0.370396,-0.833391 0.185198,-0.555594 0,-0.92599 0,0 0.0926,0 0.185198,0 0.370396,0 0,0 0,0 0,-0.0926 0,-0.185198 -0.0926,0 -0.185198,0 -0.0926,0 -0.185198,0 0.0926,-0.277797 0.462995,-1.018589 0.462995,-0.740792 0.370396,-0.92599 0.0926,-0.277797 0.277797,-0.833391 0.277797,-0.555594 0.555594,-0.648193 0,0 0,-0.0926 0,-0.0926 0,-0.370396 0.0926,0 0.277797,-0.185198 0,-1.111188 -2.129777,0 -2.037178,1.111188 -2.592772,0.833391 -0.9259899,0.648193 -1.8519799,-0.370396 -0.9259899,-1.111188 0.185198,-1.944579 0,-0.555594 0.92599,-0.555594 1.0185889,0 1.3889849,0.185198 0.92599,-0.92599 3.055767,-1.203787 2.129777,-0.370396 2.870569,-1.759381 0.555594,-1.018589 1.296386,-3.148366 0.740792,-2.129777 1.111188,-2.222376 0,-0.370396 0.185198,-1.111188 0.277797,-0.740792 0.740792,-0.833391 0.370396,-0.0926 0.740792,0.185198 0.462995,0.277797 1.018589,0.555594 0,0.833391 -0.185198,1.296386 -0.185198,0.370396 -0.370396,0.833391 0.370396,-0.277797 0.648193,-0.462995 0.277797,-0.185198 0.92599,-0.462995 0.185198,-0.462995 0.92599,-0.462995 0,0 0,-0.0926 0,-0.0926 0,-0.277797 0.0926,0 1.759381,-0.648193 1.759381,-0.648193 3.796558,-0.92599 2.037178,-0.370396 3.796559,0.277797 1.759381,0.648193 2.222376,3.240965 0.277797,2.77797 -1.018589,5.185544 -1.203787,2.407574 -2.685371,4.444752 h 1.296386 q 0.0926,0 0.555594,0.185198 0.555594,0.0926 0.833391,0 -0.185198,0.0926 -0.555594,0.0926 -0.277797,0 -0.277797,0 0,0.555594 0.555594,0.277797 0.648193,-0.370396 0.648193,-0.462995 0.277797,0.185198 0.555594,0.370396 0.370396,0.185198 0.740792,0.185198 -0.648193,0.370396 -1.296386,-0.370396 0.185198,0.370396 0.277797,0.648193 0.277797,-0.0926 0.555594,-0.0926 0.370396,-0.0926 0.648193,-0.185198 0.277797,0.277797 0.370396,0.462995 -0.0926,0 0.277797,-0.185198 0,0.0926 0.185198,0.185198 0.277797,0 0.370396,0 0,0 0.0926,0.0926 0.185198,0 0.185198,0 0.185198,0.185198 0.185198,0.277797 0,0 0.0926,0 0.370396,-0.185198 0.462995,-0.277797 0,0.92599 -2.592772,0.462995 -2.592772,-0.462995 -4.722549,0.0926 -1.111188,0.555594 -1.481584,0.92599 -3.981756,4.537351 -7.870914,6.852326 -2.407574,1.574183 -5.092945,2.500173 -2.592772,0.92599 -5.833737,1.666782 l -5.3707418,11.667473 q 0,0.555594 0.277797,1.111188 0.185198,0.555594 0.092599,1.111188 -0.277797,0 -0.740792,0.740792 -0.5555939,0.833391 -0.5555939,1.111188 -0.370396,0 -0.462995,0.0926 -0.277797,0.370396 -0.555594,0.740792 -0.277797,0.462995 -0.833391,0.740792 0,0.185198 0.185198,0.462995 -0.833391,0 -1.018589,0.277797 -0.185198,0.370396 -0.7407919,0.648193 z m 22.9645516,-28.242694 q 0,0.462995 -0.370396,0.555594 -0.277797,0 -0.555594,0.185198 0.185198,0.0926 0.370396,0.277797 -0.370396,0.277797 -0.833391,0.370396 -0.648193,0.277797 -0.648193,0.648193 0,0.277797 -1.203787,0.185198 1.388985,-0.555594 1.85198,-1.296386 -0.0926,0 -0.185198,0.0926 -0.0926,0 -0.277797,0 0,0.185198 0,0.277797 0,0 0,0 -0.462995,0 -1.574183,0.185198 0,0.185198 0,0.277797 0,0 0,0 -1.574183,0.277797 -2.314975,1.203787 -0.648193,0.92599 -2.870569,1.481584 -0.277797,0.648193 -0.462995,0.92599 -0.185198,0.277797 -1.018589,0.277797 0.185198,0.0926 0.185198,0.277797 -0.185198,0 -0.370396,0 -0.0926,0 -0.0926,0 0,-0.0926 0.185198,-0.0926 0,0 -0.0926,0 0,0 -0.185198,-0.0926 0,0 0,0.0926 0,0.0926 0,0.0926 -0.277797,0 -0.370396,0 -0.0926,0 -0.0926,0 0.0926,0.370396 0.185198,0.370396 -0.370396,0.185198 -0.462995,0.555594 -0.0926,0 -0.185198,0 -0.0926,0 -0.185198,0 -0.185198,0.462995 -0.185198,0.833391 0.277797,0 0.462995,-0.0926 0.277797,-0.185198 0.555594,-0.277797 0,-0.462995 1.111188,-0.555594 1.203787,-0.0926 1.296386,-0.0926 0,-0.0926 0,-0.185198 0,-0.0926 0,-0.0926 -0.0926,0 -0.185198,0 -0.0926,-0.0926 -0.0926,-0.0926 1.944579,-0.277797 3.240965,-0.833391 1.388985,-0.648193 2.314975,-1.203787 0,0 0,0 0,-0.0926 0,-0.277797 0,0 0.648193,-0.277797 0.648193,-0.370396 -0.0926,-0.370396 0,0 0,-0.0926 0.0926,-0.0926 0.0926,-0.277797 1.018589,-0.277797 3.70396,-2.314975 2.685371,-2.129777 2.407574,-2.314975 -0.185198,0 -1.481584,0.833391 -1.203787,0.833391 -2.222376,0.833391 z m -8.148712,-2.407574 -2.500173,5.648539 q 0.185198,0 0.185198,0.648193 -0.185198,0 -0.277797,0 0,0 0,0 0,0.0926 0,0.277797 0,0.0926 0,0.185198 0.555594,-0.370396 1.759381,-0.370396 -0.185198,0.277797 0.277797,0.277797 -0.185198,-0.555594 2.129777,-1.944579 2.407574,-1.481584 3.611361,-1.759381 0,0.277797 0,0.185198 0.0926,-0.0926 0.185198,0.185198 -0.0926,0.0926 0.0926,-0.555594 1.944579,-1.111188 3.796559,-2.037178 1.85198,-1.018589 3.61136,-2.037178 l -0.370396,-0.185198 q 2.222376,-1.666782 3.981757,-5.092945 1.759381,-3.426163 0.0926,-5.370742 0,0 0,0 0.0926,-0.0926 0.0926,-0.0926 0,0 0,0 0,-0.0926 0,-0.185198 -0.92599,-0.277797 -1.296386,-0.648193 -0.370396,-0.370396 -1.666782,-0.277797 -2.222375,0.277797 -6.111533,2.314975 -3.796559,2.037178 -3.796559,3.796559 -0.740792,0 -1.944579,2.963168 -1.111188,2.963168 -1.111188,3.055767 -0.277797,0 -0.370396,0.185198 0,0.0926 -0.185198,0.0926 0,0 0,0.0926 0,0 0,0 0,0 0,0 0.0926,0 0.185198,0 0,0.0926 0,0.277797 0,0.185198 0,0.185198 -0.185198,0.185198 -0.370396,0.185198 z m 4.444752,5.278143 q 0,0 -0.0926,-0.0926 -0.0926,-0.0926 -0.0926,-0.277797 0,0 0.0926,0 0.0926,-0.0926 0.370396,-0.0926 0,0 0.0926,0.185198 0.0926,0.185198 0.0926,0.185198 -0.0926,0 -0.277797,0.0926 -0.0926,0 -0.185198,0 z m 2.963168,-2.963168 q 0.277797,0 0.370396,-0.0926 -0.0926,-0.185198 -0.185198,-0.0926 -0.185198,0 -0.185198,0.185198 z" />
    <path
       id="path1490"
       style="font-style:normal;font-variant:normal;font-weight:normal;font-stretch:normal;font-family:HarabaraHand;-inkscape-font-specification:HarabaraHand;fill:#ffffff;fill-opacity:1;stroke-width:1.18526721px"
       d="m 37.0551,64.071425 q -1.018589,-0.740792 -0.740792,-3.148366 0.277797,-1.388985 0.555594,-2.500173 0.370396,-1.111188 1.111188,-2.870569 0.833391,-2.222376 2.77797,-4.815148 2.037178,-2.685371 2.407574,-4.352153 0.0926,0 0.185198,0 0.0926,0 0.185198,0 0,-0.370396 -0.0926,-0.648193 0.277797,-0.0926 0.740792,-0.833391 0.462995,-0.833391 0.833391,-1.296386 -0.185198,-1.481584 0,-1.574183 0.277797,-0.0926 0.833391,-1.203787 0.833391,-1.666782 2.963167,-2.129777 2.222376,-0.555594 4.074356,-0.555594 0.555594,0.185198 1.018589,1.018589 0.462995,0.740792 0.462995,1.481584 0.833391,0 1.759381,-0.277797 1.018589,-0.277797 2.129777,-0.648193 1.388985,-0.555594 2.870569,-1.111188 1.574183,-0.555594 2.963168,-0.833391 0,0 0.277797,-0.277797 0.555594,-0.0926 1.388985,0 0.833391,0 1.574183,0.555594 0.555594,0.555594 0.370396,0.740792 -0.185198,0.185198 -0.92599,0.462995 -1.018589,0.648193 -1.203787,-0.462995 -4.722549,0 -6.574529,1.85198 -1.759381,1.85198 -4.537351,2.407574 -0.370396,0.555594 -0.555594,1.296386 -0.185198,0.648193 -0.462995,1.203787 0,0 0,0.0926 0.0926,0 0.0926,0 -0.740792,1.944579 -1.759381,4.537351 -0.92599,2.500173 -2.314975,4.444752 -0.185198,0 -0.462995,0.277797 0,0 0,0.0926 0,0.0926 0,0.0926 -0.0926,0 -0.185198,0 -0.0926,0 -0.185198,0 0.0926,0 0.185198,0.0926 0.0926,0.0926 0.185198,0.0926 0,0.0926 0,0.185198 0,0.0926 0,0.0926 -0.370396,0 -0.648193,0.277797 0,0.0926 0,0.185198 0,0 0,0 -0.277797,0.0926 -0.462995,0.370396 0,0.92599 -3.055766,3.611361 -3.055767,2.685371 -4.815148,2.963168 -0.0926,0.277797 -0.555594,0.277797 -0.462995,0.0926 -0.740792,0.0926 -0.370396,0.555594 -0.740792,0.648193 -0.370396,0.0926 -0.92599,0.0926 z m 1.203787,-2.314975 q 0.462995,-0.277797 1.018589,-0.277797 0,0 0,-0.0926 0,-0.0926 0,-0.0926 0.277797,-0.0926 0.648193,-0.0926 0.277797,0.462995 1.944579,-0.555594 1.666782,-1.111188 3.70396,-3.333564 2.129776,-2.314975 4.074355,-5.648539 1.944579,-3.333564 2.685371,-7.593118 -0.462995,0.370396 -2.222376,0.648193 -1.666782,0.185198 -3.055766,-0.0926 -0.277797,0.277797 -0.740792,0.462995 -0.462995,0.0926 -0.648193,0.370396 -0.648193,0.833391 -1.944579,2.77797 -1.203787,1.944579 -2.500173,4.352153 -1.296386,2.407574 -2.222376,4.907747 -0.92599,2.500173 -0.740792,4.259554 z m 12.130468,-19.630988 q 0.370396,0 1.018589,-0.0926 0.648193,-0.0926 1.018589,-0.555594 0,-0.555594 -0.185198,-0.740792 -0.0926,-0.185198 -0.370396,-0.555594 0,0 -0.462995,0 -0.462995,0 -0.462995,0.277797 -0.555594,0.0926 -0.92599,0.0926 -0.277797,0 -0.555594,0.277797 0,0 -0.185198,0.277797 -0.185198,0.185198 0.0926,0.370396 0,0 0,0.0926 0.0926,0 0.0926,0 0,0 0.185198,0.277797 0.185198,0.277797 0.740792,0.277797 z" />
    <path
       id="path1492"
       style="font-style:normal;font-variant:normal;font-weight:normal;font-stretch:normal;font-family:HarabaraHand;-inkscape-font-specification:HarabaraHand;fill:#ffffff;fill-opacity:1;stroke-width:1.18526721px"
       d="m 68.723957,36.847319 q 1.574183,-0.277797 0.92599,0.648193 -0.555594,0.92599 -1.85198,4.259554 -0.648193,1.574183 -1.666782,4.444752 -1.018589,2.870569 -1.85198,5.833737 -0.740792,2.870569 -0.92599,5.092945 -0.185198,2.222376 0.833391,2.314975 0.462995,-0.648193 1.296386,-1.759381 0.92599,-1.203787 1.85198,-2.592772 3.148366,-4.444752 5.000346,-8.241311 1.944579,-3.796559 4.259554,-8.056113 0.555594,-1.666782 2.500172,-2.500173 2.037178,-0.925989 1.85198,-0.185198 -1.388985,2.314975 -2.407573,4.815148 -0.92599,2.407574 -1.481584,4.352153 -0.462995,1.111188 -0.92599,3.333564 -0.462995,2.129777 -0.740792,4.352153 -0.185198,2.129777 -0.0926,3.796559 0.0926,1.666782 0.92599,1.666782 1.111188,-1.481584 3.333563,-5.000346 2.222376,-3.518762 4.352153,-6.667128 0.462995,-0.833391 1.666782,-2.592772 1.296386,-1.85198 2.222376,-2.963168 -0.277797,-0.277797 1.111188,-1.944579 1.388985,-1.759381 2.500173,-2.963168 0.833391,-1.018588 1.574183,-0.925989 0.740792,0 0.0926,0.83339 -3.055767,3.889158 -5.463341,7.315321 -2.77797,3.796559 -6.018935,9.167301 -3.148365,5.370742 -4.907746,8.241311 -0.185198,0.277797 -0.740792,0.740792 -0.555594,0.370396 -1.111188,0.740792 -2.037178,1.111188 -2.407574,0.740792 -0.277797,-0.277797 -0.277797,-0.370396 0,0 0,-2.870569 0.0926,-2.963168 0.185198,-3.333564 0.185198,-0.0926 0.370396,-0.462995 0,0 0,0 0.0926,0 0.277797,0 0,0 0,0 0.0926,-0.0926 0.0926,-0.185198 -0.277797,0 -0.462995,0.0926 -0.0926,0 -0.277797,0 0.555594,-2.592772 1.111188,-5.278143 0.555594,-2.685371 1.574183,-5.55594 -2.222376,3.611361 -4.907747,7.870915 -2.592772,4.166955 -5.648539,8.889504 -0.370396,0.648193 -1.666782,1.388985 -2.129777,1.111188 -2.500173,0.740792 -0.277797,-0.370396 -0.277797,-0.370396 -0.370396,0 0.185198,-2.500173 0.555594,-2.500173 1.481584,-5.55594 0.92599,-3.055767 1.759381,-5.648539 0.92599,-2.685371 1.018589,-2.870569 0.185198,-0.0926 0.833391,-2.222376 0.740792,-2.129777 0.370396,-2.129777 -1.388985,1.666782 -0.833391,0.277797 0.555594,-1.388985 1.388985,-3.333564 0.833391,-2.037178 2.500173,-2.870569 z m 4.815148,18.5198 q -0.555594,0.185198 -0.462995,0.185198 0,0 0.0926,0 0.185198,0 0.370396,0 0.0926,0 0.277797,-0.185198 -0.0926,0 -0.185198,0 -0.0926,0 -0.0926,0 z m -8.796905,-7.963514 q -0.277797,0.277797 -0.277797,0.277797 0.0926,0 0.0926,0 0.0926,0 0.185198,0 0.185198,-0.185198 0.370396,-0.277797 -0.185198,0 -0.277797,0 -0.0926,0 -0.0926,0 z m -2.314975,8.982103 q 0.0926,-0.0926 -0.462995,0.185198 0.0926,0 0.185198,0 0.185198,0 0.462995,0 0,-0.0926 0.185198,-0.277797 -0.0926,0 -0.185198,0.0926 -0.0926,0 -0.185198,0 z" />
    <path
       id="path1494"
       style="font-style:normal;font-variant:normal;font-weight:normal;font-stretch:normal;font-family:HarabaraHand;-inkscape-font-specification:HarabaraHand;fill:#ffffff;fill-opacity:1;stroke-width:1.18526721px"
       d="m 102.89298,58.885881 q 0,0 0.0926,0 0.0926,0 0.0926,0 0.3704,-0.370396 0.74079,-0.555594 0.92599,-0.740792 2.03718,-1.85198 1.20379,-1.203787 2.03718,-2.314975 0.2778,-0.185198 0.64819,-0.648193 0.3704,-0.462995 0.83339,-0.185198 -0.18519,0 -0.27779,0.0926 -0.0926,0 -0.0926,0 0,0.185198 0,0.185198 0,0 0,0.185198 -0.1852,0 -0.2778,0.0926 0,0.0926 0,0.0926 0,0.0926 -0.0926,0.277797 0,0.185198 0,0.185198 -0.27779,0.0926 -0.37039,0.0926 0,0 -0.0926,0 0.0926,0.0926 0.0926,0.370396 -0.1852,0.185198 -0.463,0.370396 -0.1852,0.185198 -0.2778,0.370396 0,0.185198 0.0926,0.370396 0,-0.555594 0.6482,-0.92599 -0.463,0.370396 -0.463,1.018589 -0.0926,0 -0.46299,0.185198 -0.2778,0.185198 -0.5556,0.277797 -0.0926,0.185198 0.0926,0.277797 0.0926,0 0.1852,-0.185198 0.1852,-0.277797 0.46299,-0.277797 -0.27779,0.185198 -0.55559,0.555594 -0.1852,0.277797 -0.2778,0.370396 -0.27779,0.185198 -0.46299,0.370396 -0.0926,0.185198 -0.3704,0.277797 0,0.370396 -0.74079,0.92599 -0.64819,0.462995 -0.92599,0.648193 0,0 -0.55559,0.555594 h -0.1852 q -0.0926,0.185198 -0.3704,0.462995 v 0 0 q -0.83339,0.648193 -0.92599,0.648193 -0.27779,0.185198 -0.83339,0.555594 -1.388983,0.740792 -2.59277,0.92599 -0.555594,0.185198 -1.296386,0.185198 v 0 q -1.203787,0 -2.592772,-0.555594 0,-0.370396 -0.0926,-0.555594 -0.277797,0 -0.277797,0.0926 0.0926,0.0926 -0.185198,0.0926 -2.129777,-0.92599 -2.685371,-3.611361 -0.277797,-1.666782 0,-3.611361 0.277797,-2.037178 1.481584,-4.074356 0.555594,0 0.462995,-0.277797 -0.0926,0 -0.185198,0 0,0 0,0 0.0926,-0.277797 0.0926,-0.648193 -0.0926,0 -0.185198,-0.0926 0.370396,0 1.111188,-0.555594 0,-0.462995 -0.648193,-0.462995 -0.185198,0 0,-0.185198 0.185198,-0.185198 0.185198,-0.185198 0,0 0,0 0.0926,0 0.277797,0 1.85198,-4.166955 5.370742,-7.685717 3.611359,-3.611361 5.092949,-3.240965 -0.0926,-0.277797 1.38898,-0.648193 1.48158,-0.370396 2.68537,-0.277797 1.57418,0.370396 1.38899,2.037178 -0.0926,1.666782 -0.0926,2.77797 v 0 q -0.2778,2.685371 -2.22238,4.722549 -1.85198,1.944579 -4.35215,3.055767 -3.611362,1.666782 -5.926337,1.481584 -2.314975,-0.185198 -1.296386,-2.963168 -0.277797,0.462995 -0.462995,0.92599 -0.185198,0.370396 -0.370396,0.740792 -1.111188,2.500173 -1.666782,5.370742 -0.555594,2.870569 0.555594,4.537351 1.111188,1.944579 2.77797,2.037178 1.759381,0 3.703962,-0.833391 1.01859,-0.462995 2.12977,-1.388985 z m 4.25956,-21.575567 q -1.01859,-0.0926 -1.85198,0.277797 h -0.0926 q -0.64819,0.277797 -1.75938,1.018589 -0.2778,0.185198 -0.463,0.370396 -0.18519,0.185198 -0.37039,0.277797 l 0.0926,0.0926 v 0 q 0,0.185198 0,0.277797 0,0.0926 0,0.0926 -0.2778,0.0926 -0.463,0.277797 -0.0926,0.0926 -0.2778,0.0926 0,0 0,0.0926 0,0 0.1852,0 -0.55559,0.370396 -1.57418,1.388985 -0.92599,0.92599 -0.833391,1.481584 -0.0926,0 -0.185198,0 0,0 -0.0926,0 0,0 0.0926,0.0926 0.0926,0 0.0926,0 -0.370396,0.277797 -0.648193,0.740792 -0.277797,0.370396 -0.555594,0.648193 0.0926,0.0926 0.277797,0.370396 -0.0926,0 -0.277797,0 -0.0926,0 -0.0926,0 0,0.185198 0,0.277797 0,0.0926 0,0.0926 -0.185198,0 -0.185198,0.185198 0,0.0926 -0.0926,0.277797 -0.0926,0.0926 -0.0926,0.185198 -0.0926,0.0926 -0.185198,0.0926 0,0 0,0 0,0.370396 -0.0926,0.462995 0,0 -0.0926,0.0926 0,0 -0.0926,0 0,0 0.0926,0.0926 0.0926,0.0926 0.0926,0.0926 -0.185198,0 -0.277797,0 0,0 0,0 -0.555594,2.222376 0.185198,2.500173 0.740792,0.277797 2.777968,-0.277797 0.5556,-0.185198 2.40758,-1.018589 1.94457,-0.92599 3.51876,-2.500173 2.50017,-2.407574 2.96317,-5.463341 0.46299,-3.148366 -2.12978,-2.685371 z m -13.334257,12.03787 q 0,-0.185198 -0.0926,-0.277797 0,-0.0926 0,-0.185198 0,0 0.0926,0 0.0926,0 0.185198,0 0,0.0926 0,0.277797 0,0.0926 0,0.185198 -0.0926,0 -0.185198,0 0,0 0,0 z" />
    <path
       id="path1496"
       style="font-style:normal;font-variant:normal;font-weight:normal;font-stretch:normal;font-family:HarabaraHand;-inkscape-font-specification:HarabaraHand;fill:#ffffff;fill-opacity:1;stroke-width:1.18526721px"
       d="m 111.78249,62.960237 q -0.83339,-0.185198 -0.83339,-1.111188 0.1852,-1.018589 0.463,-1.296386 l 0.64819,-1.203787 q 0,0 0.37039,0 0.0926,-0.370396 0.463,-0.648193 0.37039,-0.277797 0.55559,-0.833391 -0.55559,0.277797 -0.64819,0.370396 l 0.46299,-0.92599 h 0.0926 q 0.2778,-0.277797 0.1852,-0.555594 l 0.1852,-0.185198 q 0,0 0,0 0.0926,0 0.1852,0 0,-0.185198 0.0926,-0.462995 l -0.0926,0.185198 0.55559,-1.203787 h 0.2778 q 0.0926,-0.185198 0.0926,-0.555594 0.46299,-0.648193 1.11119,-1.944579 0,0 0,0 0.0926,0 0.0926,0 0.2778,-0.370396 0.5556,-0.648193 0.37039,-0.277797 0.46299,-0.833391 -0.27779,0.277797 -0.55559,0.370396 0.2778,-0.462995 0.46299,-0.92599 v 0 q 0.3704,-0.0926 0.3704,-0.555594 v 0 -0.0926 q 0,0 0,0 0.0926,0 0.1852,0 0.1852,-0.185198 0.1852,-0.462995 0,0 -0.1852,0.0926 -0.0926,0 -0.0926,0 1.66678,-3.333564 2.03718,-5.926336 l -0.6482,0.462995 q -1.66678,1.203787 -4.07435,1.203787 -0.92599,-0.277797 -0.92599,-0.648193 0,-2.222376 2.03718,-1.666782 2.31497,0 3.88915,-1.388985 1.11119,-1.296386 1.38899,-2.870569 0.3704,-0.648193 1.20379,-0.462995 0.92599,0.185198 0.92599,0.833391 -0.83339,3.055767 -2.77797,6.667128 -1.94458,3.518762 -2.96317,8.241311 0,0 0.0926,0 0.0926,0 0.0926,0 0.18519,0 0.18519,-0.0926 0,0 0,0 0,-0.0926 0,-0.277797 2.87057,-4.537351 3.79656,-5.648539 1.01859,-1.111188 2.96317,-3.333564 0.2778,0 0.5556,0.0926 0,-0.185198 0.0926,-0.185198 -0.0926,0 -0.18519,0 0,0 0,0 0,0 0,-0.0926 0,-0.185198 0,-0.277797 0.0926,-0.185198 0.92599,-1.018589 0.83339,-0.92599 1.66678,-1.944579 0.92599,-1.018589 1.66678,-1.85198 0.74079,-0.833391 0.74079,-0.833391 0.1852,-0.277797 0.5556,-0.370396 0.37039,-0.0926 0.64819,-0.277797 0.55559,0 1.29639,0.740792 0.46299,0.277797 0.46299,0.740792 0,0.185198 0,0.370396 0,0.0926 0,0.0926 -0.3704,0.740792 -0.74079,1.481584 -0.3704,0.740792 -0.64819,1.481584 -0.2778,0.92599 -0.463,1.203787 0.463,0.555594 -0.2778,1.481584 -0.74079,0.833391 -1.20378,0.462995 -1.29639,-0.648193 -0.1852,-1.944579 0,0 0.1852,-0.833391 0.27779,-0.833391 0.37039,-1.018589 -0.37039,0 -0.46299,0.0926 -1.11119,0.462995 -2.68537,2.129777 -1.57419,1.574183 -2.12978,2.222376 -1.20379,1.296386 -2.87057,3.518762 -1.57418,2.129777 -3.24096,4.352153 -0.7408,1.111188 -1.48159,2.129777 -0.74079,0.92599 -1.38898,1.85198 -0.83339,1.203787 -1.57419,2.407574 -0.64819,1.111188 -1.01859,1.944579 -0.83339,0.370396 -1.48158,0.185198 z m 6.75973,-15.093637 q -0.1852,0 -0.2778,0.0926 -0.2778,0.277797 -0.2778,0.555594 0.1852,-0.0926 0.3704,-0.0926 0.1852,-0.277797 0.1852,-0.555594 z m -1.29639,6.574529 q 0,0 0.0926,0 0.0926,0 0.1852,0 0,0 0,-0.0926 0,-0.185198 0,-0.185198 -0.0926,0 -0.1852,0 0,0 0,0 -0.0926,0 -0.0926,0.277797 z m 7.87092,-9.2599 q 0,0 0.0926,0 0.0926,0 0.18519,0 0,0 0,-0.0926 0,-0.0926 0,-0.0926 -0.18519,0 -0.37039,0 -0.1852,0 -0.1852,0 -0.0926,0 0.2778,0.185198 z m -5.64854,0.462995 q 0,0 -0.2778,0 0,0.370396 0.463,0.370396 -0.1852,-0.0926 -0.1852,-0.370396 z" />
    <path
       id="path1498"
       style="font-style:normal;font-variant:normal;font-weight:normal;font-stretch:normal;font-family:HarabaraHand;-inkscape-font-specification:HarabaraHand;fill:#ffffff;fill-opacity:1;stroke-width:1.18526721px"
       d="m 145.21073,58.885881 q 0,0 0.0926,0 0.0926,0 0.0926,0 0.3704,-0.370396 0.74079,-0.555594 0.92599,-0.740792 2.03718,-1.85198 1.20379,-1.203787 2.03718,-2.314975 0.2778,-0.185198 0.64819,-0.648193 0.3704,-0.462995 0.83339,-0.185198 -0.18519,0 -0.27779,0.0926 -0.0926,0 -0.0926,0 0,0.185198 0,0.185198 0,0 0,0.185198 -0.1852,0 -0.2778,0.0926 0,0.0926 0,0.0926 0,0.0926 -0.0926,0.277797 0,0.185198 0,0.185198 -0.2778,0.0926 -0.37039,0.0926 0,0 -0.0926,0 0.0926,0.0926 0.0926,0.370396 -0.1852,0.185198 -0.463,0.370396 -0.1852,0.185198 -0.2778,0.370396 0,0.185198 0.0926,0.370396 0,-0.555594 0.6482,-0.92599 -0.463,0.370396 -0.463,1.018589 -0.0926,0 -0.46299,0.185198 -0.2778,0.185198 -0.5556,0.277797 -0.0926,0.185198 0.0926,0.277797 0.0926,0 0.1852,-0.185198 0.1852,-0.277797 0.46299,-0.277797 -0.27779,0.185198 -0.55559,0.555594 -0.1852,0.277797 -0.2778,0.370396 -0.27779,0.185198 -0.46299,0.370396 -0.0926,0.185198 -0.3704,0.277797 0,0.370396 -0.74079,0.92599 -0.64819,0.462995 -0.92599,0.648193 0,0 -0.55559,0.555594 h -0.1852 q -0.0926,0.185198 -0.3704,0.462995 v 0 0 q -0.83339,0.648193 -0.92599,0.648193 -0.2778,0.185198 -0.83339,0.555594 -1.38898,0.740792 -2.59277,0.92599 -0.5556,0.185198 -1.29639,0.185198 v 0 q -1.20378,0 -2.59277,-0.555594 0,-0.370396 -0.0926,-0.555594 -0.2778,0 -0.2778,0.0926 0.0926,0.0926 -0.18519,0.0926 -2.12978,-0.92599 -2.68537,-3.611361 -0.2778,-1.666782 0,-3.611361 0.27779,-2.037178 1.48158,-4.074356 0.55559,0 0.46299,-0.277797 -0.0926,0 -0.18519,0 0,0 0,0 0.0926,-0.277797 0.0926,-0.648193 -0.0926,0 -0.1852,-0.0926 0.37039,0 1.11119,-0.555594 0,-0.462995 -0.6482,-0.462995 -0.1852,0 0,-0.185198 0.1852,-0.185198 0.1852,-0.185198 0,0 0,0 0.0926,0 0.2778,0 1.85198,-4.166955 5.37074,-7.685717 3.61136,-3.611361 5.09294,-3.240965 -0.0926,-0.277797 1.38899,-0.648193 1.48158,-0.370396 2.68537,-0.277797 1.57418,0.370396 1.38899,2.037178 -0.0926,1.666782 -0.0926,2.77797 v 0 q -0.2778,2.685371 -2.22238,4.722549 -1.85198,1.944579 -4.35215,3.055767 -3.61136,1.666782 -5.92634,1.481584 -2.31497,-0.185198 -1.29638,-2.963168 -0.2778,0.462995 -0.463,0.92599 -0.1852,0.370396 -0.3704,0.740792 -1.11118,2.500173 -1.66678,5.370742 -0.55559,2.870569 0.5556,4.537351 1.11118,1.944579 2.77797,2.037178 1.75938,0 3.70396,-0.833391 1.01859,-0.462995 2.12977,-1.388985 z m 4.25956,-21.575567 q -1.01859,-0.0926 -1.85198,0.277797 h -0.0926 q -0.64819,0.277797 -1.75938,1.018589 -0.2778,0.185198 -0.463,0.370396 -0.1852,0.185198 -0.37039,0.277797 l 0.0926,0.0926 v 0 q 0,0.185198 0,0.277797 0,0.0926 0,0.0926 -0.2778,0.0926 -0.463,0.277797 -0.0926,0.0926 -0.2778,0.0926 0,0 0,0.0926 0,0 0.1852,0 -0.55559,0.370396 -1.57418,1.388985 -0.92599,0.92599 -0.83339,1.481584 -0.0926,0 -0.1852,0 0,0 -0.0926,0 0,0 0.0926,0.0926 0.0926,0 0.0926,0 -0.3704,0.277797 -0.64819,0.740792 -0.2778,0.370396 -0.5556,0.648193 0.0926,0.0926 0.2778,0.370396 -0.0926,0 -0.2778,0 -0.0926,0 -0.0926,0 0,0.185198 0,0.277797 0,0.0926 0,0.0926 -0.1852,0 -0.1852,0.185198 0,0.0926 -0.0926,0.277797 -0.0926,0.0926 -0.0926,0.185198 -0.0926,0.0926 -0.1852,0.0926 0,0 0,0 0,0.370396 -0.0926,0.462995 0,0 -0.0926,0.0926 0,0 -0.0926,0 0,0 0.0926,0.0926 0.0926,0.0926 0.0926,0.0926 -0.1852,0 -0.2778,0 0,0 0,0 -0.55559,2.222376 0.1852,2.500173 0.74079,0.277797 2.77797,-0.277797 0.55559,-0.185198 2.40757,-1.018589 1.94458,-0.92599 3.51877,-2.500173 2.50017,-2.407574 2.96316,-5.463341 0.463,-3.148366 -2.12977,-2.685371 z m -13.33426,12.03787 q 0,-0.185198 -0.0926,-0.277797 0,-0.0926 0,-0.185198 0,0 0.0926,0 0.0926,0 0.1852,0 0,0.0926 0,0.277797 0,0.0926 0,0.185198 -0.0926,0 -0.1852,0 0,0 0,0 z" />
    <path
       id="path1500"
       style="font-style:normal;font-variant:normal;font-weight:normal;font-stretch:normal;font-family:HarabaraHand;-inkscape-font-specification:HarabaraHand;fill:#ffffff;fill-opacity:1;stroke-width:1.18526721px"
       d="m 176.97219,39.162294 q -0.1852,0.648193 -0.55559,1.296386 -0.3704,0.648193 -0.5556,1.296386 -0.83339,2.222376 -0.83339,2.407574 -0.0926,0 -0.18519,0 -0.0926,0 -0.1852,0 0,0.277797 0,0.462995 0,0.0926 0,0.0926 -0.0926,0.185198 -0.463,0.185198 0,0.833391 -0.55559,1.574183 -0.463,0.648193 -0.463,1.111188 -0.27779,0.277797 -1.01859,2.407574 -0.64819,2.037178 -1.11118,4.444752 0,0 0,0.0926 0,0.0926 0,0.0926 -0.0926,0.185198 -0.0926,0.277797 -0.6482,2.77797 -0.3704,3.889158 0.2778,0.648193 0.92599,0.648193 v 0 q 0.1852,0 0.463,-0.0926 0.64819,0 2.50017,-1.111188 1.94458,-1.111188 3.42616,-2.129777 0.2778,-0.185198 0.6482,-0.555594 0.46299,-0.370396 0.92599,-0.0926 -0.1852,0 -0.3704,0.0926 -0.0926,0 -0.1852,0 0,0.0926 0,0.185198 0,0 0,0.0926 -0.0926,0 -0.1852,0.0926 0,0.0926 -0.0926,0.0926 -0.0926,0.0926 -0.18519,0.277797 0,0.0926 0,0.0926 0,0 -0.463,0 0.0926,0.185198 0,0.462995 -0.1852,0.0926 -1.01859,0.462995 0,0.185198 0.0926,0.462995 0,-0.555594 0.83339,-0.833391 -0.37039,0.185198 -0.74079,0.92599 -0.0926,0 -0.46299,0.0926 -0.3704,0.0926 -0.5556,0.0926 -0.2778,0 0,0.277797 0.0926,0 0.2778,-0.185198 0.1852,-0.185198 0.46299,-0.185198 -0.37039,0.0926 -0.64819,0.462995 -0.2778,0.277797 -0.3704,0.370396 -0.37039,0.0926 -0.83339,0.462995 -0.0926,0.370396 -0.64819,0.648193 -0.46299,0.277797 -0.74079,0.370396 -0.83339,0.370396 -1.75938,0.833391 -0.83339,0.370396 -1.01859,0.370396 -1.11119,0.185198 -2.12978,0 -0.92599,-0.462995 -1.01859,-1.574183 -0.0926,-1.111188 -0.0926,-1.574183 l 0.463,-1.759381 0.37039,-0.648193 v 0 q 0.0926,-0.370396 0.1852,-0.740792 0.0926,-0.370396 0.3704,-0.833391 -1.75938,2.963168 -4.44475,5.741138 -2.59278,2.685371 -5.37075,2.77797 -1.85198,0 -2.96316,-0.555594 0,-0.370396 -0.0926,-0.462995 -0.2778,0 -0.2778,0.0926 0,0.0926 -0.2778,0.0926 -1.75938,-0.833391 -2.22237,-3.611361 -0.0926,-1.666782 0.37039,-3.70396 0.463,-2.037178 1.85198,-4.074356 0.1852,0 0.2778,0.0926 0.1852,0.0926 0.1852,-0.277797 0,0 -0.0926,0 -0.0926,0 -0.0926,0 0,-0.185198 0.0926,-0.277797 0.0926,-0.185198 0.0926,-0.277797 -0.2778,0 -0.2778,-0.185198 0.5556,-0.0926 1.29639,-0.555594 0,-0.277797 -0.83339,-0.555594 0,0 0.18519,-0.0926 0.1852,-0.0926 0.1852,-0.277797 0,0 0,0 0.0926,0 0.1852,0 2.22238,-4.166955 6.11153,-7.685717 3.98176,-3.518762 5.37075,-3.240965 0,-0.277797 1.48158,-0.648193 1.57418,-0.370396 2.77797,-0.0926 1.01859,0.185198 1.01859,0.740792 0,0.277797 0,0.370396 0.0926,0.0926 0.0926,0.0926 0.92599,0 1.38898,0.0926 v 0 q 0.3704,-0.92599 0.83339,-1.944579 0.5556,-1.018588 1.01859,-2.037177 0,-0.0926 0.0926,-0.277797 0.0926,-0.277797 0.1852,-0.462995 0.463,-1.018589 1.11119,-2.129777 0.74079,-1.111188 1.01859,-2.222376 0.55559,-0.555594 0.55559,-0.555594 0,-0.833391 0.463,-1.388985 0.55559,-0.648193 0.92599,-1.203787 0.55559,-1.018589 1.85198,-0.833391 1.38898,0.0926 1.11118,0.648193 0,0.555594 0,1.203787 0,0.555594 -0.83339,1.574183 -1.66678,1.85198 -2.87057,4.166955 -0.37039,0.740792 -0.83339,1.481584 -0.37039,0.740792 -0.74079,1.481584 -0.55559,1.203786 -1.29638,2.407573 -0.1852,0.370396 -0.3704,0.740792 -0.1852,0.370396 -0.2778,0.648193 z m -6.57453,10.834083 q -0.46299,0.833391 -0.46299,1.018589 l 0.46299,-1.388985 v -0.0926 q 0,0 0,-0.185198 0.0926,-0.277797 0.0926,-0.277797 0,0 0,0 0.0926,0 0.0926,0 v -0.0926 l 0.0926,-0.462995 q 0.2778,-0.0926 0.3704,-0.462995 h -0.1852 q 0,-0.185198 0.0926,-0.370396 0.27779,0 0.1852,0 0,0 0.0926,-0.0926 -0.18519,-0.185198 -0.18519,-0.462995 0,0 0,0 0.0926,0 0.18519,-0.0926 0.2778,-0.833391 0.463,-1.481584 0.2778,-0.648193 0.46299,-1.111188 0.0926,-0.277797 0.1852,-0.648193 0.0926,-0.370396 0.2778,-0.740792 -0.1852,0 -0.2778,0 -0.0926,0 -0.1852,0 -1.01858,-0.0926 -1.01858,-0.92599 0,-1.018589 1.01858,-1.759381 1.11119,-0.833391 0.92599,-1.388985 -0.0926,-0.185198 -0.0926,-0.277797 -0.0926,0 -0.1852,0 0,-0.0926 -0.0926,-0.0926 v 0 0 q -0.64819,-0.92599 -1.85198,-1.296386 -2.77797,-0.185198 -6.66713,3.611361 -3.79656,3.70396 -6.29673,8.241311 -1.38899,2.592772 -2.12978,5.463341 -0.74079,2.870569 0.0926,4.62995 1.01859,1.944579 2.68537,1.944579 1.75938,0 3.70396,-0.92599 2.22238,-1.018589 4.35215,-3.70396 2.22238,-2.77797 3.14837,-4.537351 0.1852,-0.833391 0.64819,-1.944579 z m 6.94493,-16.390022 q 0,0 0.2778,-0.277797 -0.0926,0 -0.0926,0 0,-0.0926 0,-0.0926 -0.0926,0 -0.3704,0.185198 0,0 0.0926,0.0926 0.0926,0.0926 0.0926,0.0926 z m -21.01997,15.741829 q 0,-0.277797 -0.0926,-0.462995 0,0 0.0926,0.0926 0.0926,0 0.27779,0 0,0.0926 0,0.185198 0,0.0926 0,0.185198 -0.1852,0 -0.27779,0 0,0 0,0 z m 15.83442,2.500173 q -0.0926,0.370396 -0.27779,0.740792 -0.0926,0.277797 -0.1852,0.740792 -0.0926,0 -0.1852,0 0,0 0,0 0.1852,-1.018589 0.64819,-1.481584 z m 0.8334,-2.314975 q 0.0926,-0.185198 0.0926,-0.648193 h 0.3704 q -0.0926,0.277797 -0.1852,0.370396 -0.0926,0 -0.0926,0.277797 z m 0.55559,-1.666782 q 0,-0.0926 0,-0.185198 0,-0.0926 0,-0.0926 h 0.2778 v 0.277797 q -0.1852,0 -0.2778,0 0,0 0,0 z m 1.38898,-2.685371 q 0,-0.370396 0.1852,-0.648193 0.1852,-0.370396 0.2778,-0.740792 0.0926,0.740792 -0.2778,1.388985 -0.0926,0 -0.1852,0 0,0 0,0 z m 1.48159,-3.611361 q 0,-0.0926 0.1852,-0.277797 z m 0.55559,-1.018589 -0.0926,-0.0926 q 0.0926,-0.185198 0.1852,-0.462995 0,0 0,0.0926 0,0 0.0926,0 -0.0926,0.185198 0,0.370396 z m 0.1852,-0.740792 q 0,-0.648193 0.463,-0.740792 0,0.277797 -0.463,0.740792 z m 0.74079,-1.481584 0.1852,-0.185198 q 0,0.185198 -0.1852,0.185198 z m 1.20379,-2.685371 q 0.1852,-0.277796 0.3704,-0.277796 z m -7.68572,16.945617 v -0.0926 0 z m 7.96352,-17.408611 q 0,-0.370396 0.18519,-0.462995 0.1852,-0.185198 0.463,-0.555594 0,0.185198 -0.2778,0.648193 -0.27779,0.370396 -0.37039,0.370396 z" />
    <path
       id="path1502"
       style="font-style:normal;font-variant:normal;font-weight:normal;font-stretch:normal;font-family:HarabaraHand;-inkscape-font-specification:HarabaraHand;fill:#ffffff;fill-opacity:1;stroke-width:1.18526721px"
       d="m 203.91849,66.3864 q -1.01859,0 -0.74079,-1.481584 0.2778,-0.92599 0.64819,-1.85198 0.3704,-0.833391 1.38899,-2.222376 1.66678,-2.77797 4.16695,-5.741138 2.59277,-3.055767 4.53735,-3.981757 0,-0.185198 0.1852,-0.277797 0,-0.185198 0.1852,-0.185198 0,0 0,-0.0926 0,-0.0926 0,-0.185198 0.37039,-0.277797 1.11119,-0.833391 0.74079,-0.555594 1.66678,-0.833391 0,0 0,-0.0926 0,-0.0926 0,-0.0926 0.0926,-0.0926 0.37039,-0.0926 -0.0926,-0.0926 -0.0926,-0.185198 0,-0.0926 0,-0.0926 0.27779,-0.0926 0.46299,-0.0926 0.1852,-0.370396 1.48158,-0.648193 0,-0.0926 0,-0.185198 0,-0.0926 0,-0.185198 1.11119,-0.648193 2.96317,-1.203787 1.85198,-0.648193 2.96317,-0.92599 0.55559,-0.648193 0.83339,-1.296386 0.3704,-0.740792 0.64819,-1.574183 0.2778,-0.92599 0.5556,-2.407574 0.37039,-1.481584 -0.463,-2.129777 -0.55559,-0.462995 -1.38898,-0.370396 -0.74079,0.0926 -0.92599,0.0926 0,-0.0926 0,-0.185198 0,-0.185198 0,-0.185198 -0.3704,0 -0.1852,0.370396 -2.68537,0.0926 -5.92634,2.685371 -3.14836,2.500173 -4.16695,3.518762 0,0 0,0.0926 0,0 0,0 -0.92599,0.462995 -1.75938,1.759381 -0.83339,1.203787 -1.57418,1.296386 0,0.0926 0,0.185198 0,0.0926 0,0.185198 -0.6482,0.555594 -1.20379,0.833391 -0.5556,0.185198 -1.38899,0.0926 -0.92599,-0.277797 -0.74079,-1.111188 0.1852,-0.92599 0.3704,-1.759381 0.37039,0 0.46299,-0.0926 0,-0.833391 1.01859,-1.574183 1.01859,-0.833391 1.38899,-1.759381 0.55559,-1.018589 1.11118,-1.018589 0.3704,-0.555594 0.7408,-1.203787 3.33356,-5.555939 5.83373,-11.482275 2.50018,-5.926336 3.33357,-6.389331 -0.2778,-0.462995 0.27779,-1.203787 0.0926,-0.555594 0.2778,-1.296386 0.1852,-0.740792 1.29639,-0.92599 0.64819,0 1.20378,1.018589 0.6482,1.018589 -0.74079,2.407574 0,0 -1.57418,2.685371 -1.57418,2.685371 -3.42616,6.018935 -1.75938,3.333564 -3.33357,6.38933 -1.48158,3.055767 -1.38898,3.889158 0.64819,-0.555594 1.66678,-1.111188 1.11119,-0.648193 1.57418,-0.833391 0,0 0,0 0.0926,0 0.1852,0 0,0.370396 0,0.277797 0.0926,-0.185198 0.2778,-0.277797 0,-0.0926 0,0 0,0 0,-0.277797 0,0 0.0926,0 0.0926,0 0.0926,0 0,0 0,-0.0926 0,-0.0926 0,-0.0926 1.66678,-0.92599 4.07435,-1.574183 2.50017,-0.740792 4.44475,-0.462995 0.0926,0 0.0926,0.0926 0.0926,0 0.0926,0 2.68537,0 2.40758,3.333564 -0.2778,3.333564 -1.85198,5.185544 1.66678,0 3.14836,0.0926 1.57418,0.0926 2.03718,0.370396 -1.94458,-0.370396 -3.61136,-0.185198 -1.57418,0.0926 -1.66678,0.0926 -5.00035,6.018935 -9.4451,11.852672 -4.44475,5.741138 -12.13047,9.074702 -0.64819,0.277797 -1.94458,0.462995 z m 2.03718,-2.963168 q 5.00034,-1.018589 8.51911,-4.537351 3.51876,-3.611361 6.29673,-7.500519 0.64819,-0.92599 1.66678,-2.222376 1.11119,-1.388985 2.59277,-3.611361 -1.57418,0.185198 -3.98175,1.574183 -2.31498,1.388985 -3.42617,2.222376 -0.1852,-0.185198 -0.74079,-0.185198 0.0926,0.370396 -0.55559,0.555594 -0.5556,0.185198 -0.6482,0.185198 0,0.185198 0,0.370396 0,0.185198 0,0.277797 -0.27779,0 -0.46299,0.0926 -0.0926,0 -0.0926,0 -0.64819,0.370396 -0.92599,0.92599 -1.11119,0.833391 -3.70396,4.074356 -2.59277,3.148366 -3.42616,4.166955 -1.66679,2.222376 -1.85198,3.055767 -0.0926,0.833391 0.74079,0.555594 z m 8.7969,-12.03787 q 0.0926,-0.277797 0.3704,-0.555594 0,0 0.0926,0 0.0926,0 0.1852,0 -0.0926,0.277797 -0.6482,0.555594 z m 1.38899,-0.92599 q -0.1852,-0.0926 -0.3704,-0.277797 0,0 0,0 0,-0.0926 0,-0.185198 0.0926,0.0926 0.2778,0.185198 0.1852,0 0.3704,0 0,0 0,0.0926 0,0.0926 0.18519,0.0926 -0.27779,0 -0.37039,0.0926 -0.0926,0 -0.0926,0 z m 1.01859,-0.740792 q -0.0926,-0.0926 -0.0926,-0.277797 0,0 0.0926,0 0.0926,0 0.1852,0 0,0.0926 0,0.185198 0,0.0926 0,0.0926 -0.0926,0 -0.1852,0 0,0 0,0 z" />
    <path
       id="path1504"
       style="font-style:normal;font-variant:normal;font-weight:normal;font-stretch:normal;font-family:HarabaraHand;-inkscape-font-specification:HarabaraHand;fill:#ffffff;fill-opacity:1;stroke-width:1.18526721px"
       d="m 229.38323,83.980209 q -0.83339,-4.352153 3.05576,-11.11188 3.98176,-6.667127 8.33391,-11.574874 -0.0926,0.0926 -0.0926,0.555594 0.0926,-0.0926 0.3704,-0.0926 0,-0.370396 0.0926,-0.462995 h -0.3704 l 0.83339,-0.833391 q 1.11119,-2.77797 2.68537,-6.018935 1.57419,-3.240965 2.40758,-7.315321 -0.463,0 -0.3704,0.0926 0.0926,0.0926 0.0926,0.370396 -0.1852,0.185198 -2.12978,2.77797 -1.85198,2.592772 -4.16695,5.55594 -2.22238,2.963168 -4.35215,5.463341 -2.03718,2.407574 -2.50018,2.407574 -0.0926,0 -0.92599,0.462995 -0.83339,0.462995 -1.66678,-0.555594 -0.46299,-0.462995 -0.46299,-1.296386 1.66678,-4.444752 4.72255,-10.371088 3.14836,-6.018935 4.53735,-9.352499 0.0926,-0.462995 -0.3704,-0.185198 -0.1852,0.185198 -0.1852,-0.277797 0.2778,-0.833391 0.6482,-1.481584 0.27779,-0.648193 0.64819,-1.296386 0.46299,-0.648193 0.74079,-1.296386 0.463,-0.462995 1.75938,-0.185198 1.29639,0.185198 0.463,1.85198 -1.11119,2.222376 -2.59278,4.907747 -1.48158,2.685371 -2.87056,5.185544 v 0.555594 q -0.8334,1.574183 -2.59278,4.815148 -1.66678,3.240965 -1.75938,4.62995 1.20379,-0.185198 3.33357,-2.407574 2.22237,-2.222376 4.44475,-5.092945 2.31497,-2.870569 4.35215,-5.648539 2.03718,-2.870569 3.05577,-4.259554 2.22237,-3.240965 2.50017,-4.166955 0.2778,-0.92599 1.75938,-0.740792 1.29639,0.555594 0.5556,2.314975 -0.6482,1.666782 -2.31498,4.259554 -1.57418,2.500173 -3.42616,5.926336 -1.85198,3.333564 -2.77797,7.315321 0.2778,-0.277797 0.64819,-0.462995 0.3704,-0.185198 0.64819,-0.462995 0.2778,-0.0926 0.8334,-0.277797 0.55559,-0.277797 0.92599,-0.277797 0.18519,0 0.37039,-0.185198 0.2778,-0.185198 0.5556,-0.277797 0.0926,-0.0926 0.46299,-0.0926 0.3704,-0.0926 0.64819,-0.370396 0,0.277797 -0.27779,0.370396 -0.2778,0 -0.2778,0.0926 0,0.185198 0.0926,0.0926 0.83339,-0.370396 0.83339,-0.740792 0.55559,0.277797 1.11119,-0.185198 -0.6482,0.648193 -1.01859,0.277797 0.0926,0.370396 0.1852,0.370396 0.27779,-0.185198 0.46299,-0.277797 0.2778,-0.0926 0.5556,-0.370396 0.27779,0.185198 0.27779,0.277797 0.0926,0 0.0926,-0.0926 0,-0.185198 0.2778,-0.277797 0,0 0.0926,0 0.0926,0 0.0926,0 0.37039,-0.370396 0.37039,-0.0926 0.1852,0.0926 0.1852,0.0926 0.3704,-0.370396 0.3704,-0.370396 0,0.555594 -0.5556,0.740792 -0.46299,0.185198 -0.74079,0.370396 -1.94458,0.833391 -3.98176,1.85198 -1.94458,1.018589 -3.51876,2.592772 -0.46299,1.111188 -1.11119,2.222376 -0.55559,1.111188 -0.55559,1.481584 0,0.0926 -0.2778,0.370396 -0.55559,2.037178 -1.01859,3.981756 -0.37039,2.037178 -0.0926,2.870569 -0.27779,0.0926 -0.46299,0.0926 0,-0.0926 0,-0.185198 0,0 0,0 -0.0926,0 -0.2778,0 -0.0926,0 -0.1852,0 0,0.185198 0,0.462995 0.0926,0.277797 0,0.555594 0,0 0,0 0.0926,0.0926 0.1852,0.185198 -1.29638,1.666782 -2.31497,4.259554 -0.92599,2.592772 -2.31498,4.722549 -1.66678,2.407574 -2.96316,3.240965 -0.8334,0.648193 -2.22238,1.018589 -1.29639,0.370396 -1.57418,-1.018589 z m 17.6864,-37.317396 q -0.0926,0 -0.18519,0 -0.0926,0 -0.1852,0 0,0.0926 0,0.277797 0,0.0926 0,0.0926 0.0926,0 0.1852,0 0.0926,0 0.0926,0 0.0926,-0.0926 0.0926,-0.370396 z m -8.4265,9.908093 q -0.0926,0 -0.1852,0 -0.0926,0 -0.1852,0 0,0.277797 0.1852,0.277797 0,0 0.0926,0 0.18519,0 0.46299,0 -0.0926,0 -0.2778,0 -0.0926,-0.0926 -0.0926,-0.277797 z m 6.01893,-0.462995 q 0.3704,0.185198 0.2778,-0.0926 -0.0926,-0.370396 -0.3704,-0.370396 0,0.185198 0,0.277797 0.0926,0.0926 0.0926,0.185198 z m -13.61205,27.594501 q 3.42616,-1.944579 7.03752,-11.019281 -0.0926,-0.0926 -0.0926,-0.185198 0,-0.185198 0.0926,-0.185198 0.0926,0 0.0926,0 0.1852,-0.370396 0.2778,-0.462995 0,-0.0926 0.1852,-0.0926 0,-0.185198 -0.0926,-0.462995 0.27779,-0.185198 1.38898,-3.148366 1.20379,-2.870568 1.20379,-2.963167 -0.463,0 -1.11119,-0.0926 0,0 0,-0.0926 0,-0.0926 0,-0.0926 0.0926,-0.0926 0.463,-0.0926 0,-0.185198 0.0926,-0.185198 -0.92599,0 -1.85198,1.481584 0,0 0.2778,0.277797 -0.92599,0.555594 -1.11119,1.018588 -0.0926,0.462995 -1.38898,1.296386 0,0 0,0 0,0.0926 0,0.0926 0.46299,0 0.64819,0.0926 0,0 0,0.0926 0,0.0926 0,0.185198 -1.29638,0.0926 -1.11119,0.0926 0.1852,0.0926 0.463,0.462995 -0.74079,0.462995 -2.03718,2.500173 -1.20379,2.129777 -2.31497,4.444752 -1.01859,2.407574 -1.48159,4.444752 -0.46299,2.129777 0.3704,2.592772 z m 9.3525,-21.019972 q 0.0926,-0.0926 0.18519,-0.0926 0.0926,-0.0926 0.0926,-0.0926 0,0 -0.18519,-0.185198 0,0.0926 -0.0926,0.185198 0,0.0926 0,0.185198 z" />
  </g>
</svg>
